<?xml version="1.0" encoding="utf-8"?>
<!-- Generator: Adobe Illustrator 21.0.0, SVG Export Plug-In . SVG Version: 6.00 Build 0)  -->
<svg version="1.1" id="Layer_1" xmlns="http://www.w3.org/2000/svg" xmlns:xlink="http://www.w3.org/1999/xlink" x="0px" y="0px"
	 viewBox="0 0 512 512" style="enable-background:new 0 0 512 512;" xml:space="preserve">
<style type="text/css">
	.st0{fill:#FF7A7A;}
	.st1{fill:#FF5959;}
	.st2{fill:#9DC2C2;}
	.st3{fill:#5C9999;}
</style>
<path class="st0" d="M256,512c-99,0-184.9-39.4-184.9-98.5c0-45,51.3-82.1,130.6-94.4c8.3-1.3,16.5,2.7,20.5,10.1
	c12.7,22.9,24.7,43.5,33.8,58.9c9.1-15.4,21.2-36,33.8-58.9c4-7.3,12.2-11.3,20.5-10.1c79.3,12.3,130.6,49.4,130.6,94.4
	C440.9,473,354.1,512,256,512z"/>
<path class="st1" d="M310.3,319.1c-8.3-1.3-16.5,2.7-20.5,10.1C277.2,352,265.1,372.6,256,388v124c99,0,184.9-39.4,184.9-98.5
	C440.9,368.5,389.7,331.4,310.3,319.1z"/>
<path class="st2" d="M256,0c-82.1,0-148.9,66.8-148.9,148.9c0,67.1,97.4,232.7,132,288.1c3.6,5.8,10,9.4,16.9,9.4
	c6.9,0,13.3-3.5,16.9-9.4c35.3-56.4,132-221.1,132-288.1C404.9,66.8,338.1,0,256,0z M256,223c-40.8,0-74-33.2-74-74s33.2-74,74-74
	s74,33.2,74,74C330,189.8,296.8,223,256,223z"/>
<path class="st3" d="M256,0v74.9c40.8,0,74,33.2,74,74s-33.2,74-74,74v223.4c6.9,0,13.3-3.5,16.9-9.4c35.3-56.4,132-221.1,132-288.1
	C404.9,66.8,338.1,0,256,0z"/>
</svg>
